<svg width="261" height="130" viewBox="0 0 261 130" fill="none" xmlns="http://www.w3.org/2000/svg">
<path fill-rule="evenodd" clip-rule="evenodd" d="M129.49 0.0194129C129.462 0.0494331 126.812 0.0992674 123.601 0.130488C115.201 0.211543 115.259 0.201935 113.653 1.70054C113.117 2.20068 112.679 2.66179 112.679 2.72663C112.679 2.79087 112.565 3.05565 112.427 3.31382C112.289 3.5726 112.176 3.84218 112.176 3.91363C112.175 3.98448 112.039 4.32911 111.873 4.67794C111.707 5.02737 111.544 5.56774 111.511 5.87875C111.478 6.19036 111.371 6.559 111.273 6.6983C111.174 6.83759 111.024 7.26568 110.938 7.64874C110.853 8.03239 110.593 8.95401 110.362 9.69671C109.767 11.6138 109.666 11.9482 109.416 12.8524C109 14.3624 108.457 14.4237 107.131 13.1094C105.954 11.9428 105.391 11.7087 103.749 11.7027C100.932 11.6925 99.3956 13.1418 100.224 15.0271C100.4 15.4282 101.566 16.1012 102.085 16.1012C102.213 16.1012 102.465 16.1625 102.646 16.2375C102.946 16.3624 103.652 16.4554 104.978 16.5455C106.126 16.6236 106.308 17.018 105.672 18.0585C104.357 20.2134 104.319 20.4721 104.253 27.5587C104.192 34.1649 104.253 35.1172 104.796 36.1409C105.65 37.7487 106.582 38.2615 108.896 38.3978C110.833 38.5119 110.74 38.384 110.75 40.9621C110.768 45.3114 111.259 45.823 115.297 45.6969C118.582 45.5942 119.196 44.9037 119.323 41.168C119.396 38.9892 119.43 38.7736 119.723 38.6175C120.076 38.4296 141.655 38.4716 141.865 38.6608C142.051 38.8277 142.164 39.6178 142.218 41.1182C142.247 41.9143 142.474 43.9017 142.562 44.1274C142.7 44.4805 144.068 45.6086 144.458 45.6903C144.98 45.8001 148.101 45.7521 148.803 45.623C149.309 45.53 149.441 45.4495 150.009 44.8839L150.648 44.2493L150.748 43.4093C150.802 42.947 150.859 41.8033 150.874 40.8678C150.887 39.9324 150.906 39.0912 150.915 38.9988C150.945 38.677 151.228 38.5167 151.769 38.5125C152.568 38.5071 154.631 38.0712 154.943 37.8424C155.092 37.7331 155.315 37.6119 155.439 37.5728C155.563 37.5332 155.738 37.3585 155.828 37.1832C155.918 37.0084 156.126 36.695 156.291 36.4867C156.962 35.6377 156.992 35.3135 156.979 29.0099C156.964 22.4625 156.869 20.3365 156.567 19.8507C156.457 19.6742 156.367 19.4701 156.367 19.3968C156.367 19.3242 156.251 19.0978 156.109 18.8943C155.839 18.5076 155.565 17.646 155.563 17.1807C155.561 16.8019 155.811 16.7016 156.759 16.7016C159.519 16.7016 161.241 16.0874 162.035 14.82C162.702 13.7542 162.545 13.3892 161.104 12.6561C158.68 11.4241 155.819 11.7453 154.737 13.3712C153.836 14.7239 152.327 14.6302 152.002 13.2019C151.915 12.8182 151.755 12.3313 151.647 12.1205C151.539 11.9098 151.398 11.4499 151.334 11.0981C151.27 10.7462 151.136 10.2983 151.036 10.1026C150.936 9.90685 150.821 9.50398 150.78 9.20678C150.74 8.90958 150.599 8.43706 150.468 8.15608C150.336 7.87509 150.228 7.48663 150.227 7.2927C150.227 7.09817 150.157 6.84059 150.071 6.71991C149.986 6.59863 149.832 6.19456 149.729 5.82171C149.431 4.74459 149.231 4.19341 148.861 3.4273C148.671 3.03344 148.515 2.6858 148.515 2.65458C148.515 2.62336 148.107 2.19227 147.61 1.69694C146.123 0.219947 145.449 0.0926611 139.103 0.0962636C137.332 0.0974644 134.455 0.0680459 132.711 0.0314213C130.967 -0.00520331 129.517 -0.0106072 129.49 0.0194129ZM127.778 2.89234L128.117 3.19254H127.701C126.714 3.19254 125.525 3.83978 125.435 4.42637C125.235 5.73705 125.787 5.88835 130.832 5.90577C134.4 5.91777 134.442 5.91177 134.683 5.33899C135.177 4.1628 134.436 3.36606 132.712 3.22256L132.016 3.16432L132.161 2.88574L132.306 2.60715L136.359 2.63897C143.184 2.69181 143.754 2.79988 145.09 4.29308C145.637 4.90489 146.401 6.15553 146.401 6.43952C146.401 6.51037 146.486 6.67548 146.589 6.80637C146.693 6.93786 146.811 7.20264 146.852 7.39537C146.893 7.58809 147.052 8.08343 147.206 8.4959C148.436 11.7945 148.559 13.4811 147.633 14.3534C146.671 15.26 145.819 15.0139 144.908 13.5657C144.485 12.8939 143.512 11.9026 143.084 11.7075C142.888 11.618 142.614 11.4703 142.475 11.3784C140.542 10.102 136.304 12.0005 135.785 14.3757C135.655 14.9743 136.025 14.9508 126.822 14.9484C115.959 14.946 114.825 14.9088 114.03 14.5312C112.689 13.8935 112.681 12.5967 113.994 8.68563C114.267 7.87268 114.491 7.1444 114.491 7.06694C114.491 6.98949 114.577 6.8484 114.683 6.75293C114.789 6.65807 114.906 6.46054 114.943 6.31464C115.1 5.69202 116.09 4.22103 116.613 3.83017C117.731 2.99801 118.307 2.80168 119.683 2.78547C120.011 2.78127 120.369 2.73924 120.481 2.69241C120.591 2.64498 122.203 2.60295 124.061 2.59935L127.44 2.59214L127.778 2.89234ZM138.85 3.65906C138.546 3.86079 138.265 4.07934 138.226 4.14418C138.186 4.20963 137.979 4.4732 137.766 4.72958C136.511 6.23899 136.687 7.79403 138.311 9.54961C138.824 10.105 140.614 10.371 141.71 10.0546C143.814 9.44634 144.692 6.4077 143.31 4.52124C142.437 3.33064 140.042 2.86773 138.85 3.65906ZM141.8 13.0121C142.033 13.1298 142.383 13.3664 142.577 13.5375C142.771 13.7092 143.027 13.9169 143.144 13.9998C143.505 14.2526 143.541 14.6831 143.212 14.8073C142.894 14.9274 138.32 14.9106 137.974 14.7875C137.414 14.5876 138.5 13.2733 139.556 12.8722C139.972 12.7137 141.383 12.802 141.8 13.0121ZM116.645 21.8717C117.763 22.2938 119.323 23.9539 119.323 24.7206C119.323 24.7993 119.413 25.1205 119.524 25.4333C120.43 27.9964 117.737 31.3112 114.748 31.3112C113.105 31.3112 111.385 30.371 110.647 29.0687C109.877 27.7118 109.715 26.8364 109.956 25.3504C110.425 22.4607 113.697 20.7591 116.645 21.8717ZM148.017 21.6988C150.486 22.4205 151.862 24.789 151.39 27.5053C150.763 31.1173 145.976 32.5787 143.338 29.9639C142.929 29.5598 142.563 29.1228 142.524 28.9943C142.484 28.8652 142.373 28.6694 142.276 28.5596C141.651 27.8475 141.634 24.8455 142.252 24.1748C142.362 24.0548 142.485 23.8506 142.524 23.7209C142.958 22.3022 146.111 21.1416 148.017 21.6988ZM137.163 23.0167C139.025 23.1511 139.334 23.2622 139.1 23.7137C138.837 24.2169 138.888 24.2145 131.097 24.1844C124.186 24.158 123.761 24.1466 123.571 23.9749C122.958 23.4225 123.384 23.1211 124.889 23.0425C125.454 23.0124 125.935 22.9698 125.958 22.947C126.053 22.8539 135.742 22.914 137.163 23.0167ZM113.981 23.1427C110.794 23.9953 110.446 28.1021 113.444 29.48C116.198 30.7462 119.165 27.7256 117.787 25.0574C117.257 24.0319 116.497 23.3811 115.635 23.2142C114.695 23.0317 114.438 23.0209 113.981 23.1427ZM145.403 23.2748C143.71 23.7906 142.82 25.958 143.574 27.7334C145.019 31.1365 149.932 30.0906 149.922 26.3819C149.916 24.0319 147.768 22.5555 145.403 23.2748ZM139.015 26.0277C139.323 26.3339 139.087 26.84 138.596 26.9265C137.417 27.1348 123.592 26.9355 123.448 26.7085C123.179 26.2852 123.418 26.0037 124.155 25.8722C125.01 25.7203 138.851 25.8644 139.015 26.0277ZM138.743 28.7403C139.569 29.0267 138.968 29.3869 137.41 29.5412C135.724 29.7075 127.178 29.6931 125.312 29.5208C123.454 29.3485 122.904 29.0927 123.676 28.7589C124.119 28.5674 138.195 28.5506 138.743 28.7403Z" fill="black"/>
<path d="M40.533 76V74.528L43.477 73.824V55.776L40.533 55.072V53.6H48.853C52.7783 53.6 55.861 54.5387 58.101 56.416C60.3623 58.2933 61.493 61.088 61.493 64.8C61.493 68.1493 60.3303 70.8587 58.005 72.928C55.6797 74.976 52.629 76 48.853 76H40.533ZM47.413 73.856H48.693C51.5303 73.856 53.6957 73.1413 55.189 71.712C56.7037 70.2827 57.461 67.9787 57.461 64.8C57.461 61.856 56.6823 59.616 55.125 58.08C53.589 56.5227 51.445 55.744 48.693 55.744H47.413V73.856ZM64.2458 76V74.624L66.9658 73.984V62.592H64.2458V61.216L69.3658 60H70.7738V61.984C72.5018 60.3413 74.5071 59.52 76.7898 59.52C76.9178 59.9253 76.9818 60.3733 76.9818 60.864C76.9818 61.6533 76.8858 62.3573 76.6938 62.976L72.6298 62.624C71.9898 62.9227 71.3711 63.2853 70.7738 63.712V73.984L74.1338 74.624V76H64.2458ZM78.6253 67.808C78.6253 65.4613 79.2973 63.4987 80.6413 61.92C81.9853 60.32 83.8413 59.52 86.2093 59.52C87.4466 59.52 88.5239 59.7547 89.4413 60.224C90.3799 60.672 91.1159 61.3013 91.6493 62.112C92.2039 62.9227 92.6093 63.8293 92.8653 64.832C93.1213 65.8347 93.2493 66.9227 93.2493 68.096H82.4333C82.5826 69.8453 83.1693 71.3387 84.1933 72.576C85.2173 73.792 86.6146 74.4 88.3853 74.4C89.5159 74.4 90.7426 74.1547 92.0653 73.664L92.6093 75.168C90.6253 76.0427 88.7373 76.48 86.9453 76.48C84.3639 76.48 82.3266 75.6373 80.8333 73.952C79.3613 72.2667 78.6253 70.2187 78.6253 67.808ZM82.4333 66.528L89.2813 66.016C89.2173 64.736 88.9186 63.6267 88.3853 62.688C87.8519 61.7493 87.0946 61.28 86.1133 61.28C85.0466 61.28 84.1719 61.7813 83.4893 62.784C82.8279 63.7867 82.4759 65.0347 82.4333 66.528ZM95.5575 72.032C95.5575 68.3413 98.8322 66.496 105.382 66.496V65.376C105.382 63.52 105.115 62.3467 104.582 61.856C104.07 61.344 103.259 61.088 102.15 61.088L98.4055 64.288C97.8935 63.968 97.4562 63.52 97.0935 62.944C96.7522 62.3467 96.5708 61.7173 96.5495 61.056C97.4455 60.5653 98.4268 60.192 99.4935 59.936C100.56 59.6587 101.616 59.52 102.661 59.52C107.035 59.52 109.222 61.3547 109.222 65.024V73.92H111.718V74.976C111.227 75.4453 110.683 75.808 110.086 76.064C109.488 76.3413 108.902 76.48 108.326 76.48C107.067 76.48 106.139 75.936 105.542 74.848C104.112 75.936 102.502 76.48 100.71 76.48C99.3015 76.48 98.0855 76.1067 97.0615 75.36C96.0588 74.6133 95.5575 73.504 95.5575 72.032ZM99.5895 71.904C99.5895 72.6933 99.8455 73.28 100.358 73.664C100.891 74.048 101.563 74.24 102.374 74.24C103.547 74.24 104.55 73.8773 105.382 73.152V68.128C103.462 68.128 102.011 68.48 101.03 69.184C100.07 69.8667 99.5895 70.7733 99.5895 71.904ZM113.246 76V74.624L115.966 73.984V62.592H113.246V61.216L118.366 60H119.774V61.44C121.416 60.16 123.102 59.52 124.83 59.52C127.027 59.52 128.584 60.3307 129.502 61.952C131.379 60.3307 133.288 59.52 135.23 59.52C136.872 59.52 138.163 59.9893 139.102 60.928C140.062 61.8667 140.542 63.072 140.542 64.544V73.984L143.262 74.624V76H134.654V74.624L136.734 73.984V64.96C136.734 63.9573 136.488 63.1893 135.998 62.656C135.528 62.1227 134.856 61.856 133.982 61.856C132.723 61.856 131.411 62.3467 130.046 63.328C130.131 63.84 130.174 64.2453 130.174 64.544V73.984L132.254 74.624V76H124.254V74.624L126.334 73.984V64.96C126.334 63.9573 126.088 63.1893 125.598 62.656C125.128 62.1227 124.456 61.856 123.582 61.856C122.387 61.856 121.118 62.304 119.774 63.2V73.984L121.854 74.624V76H113.246ZM145.064 76V74.528L148.008 73.824V55.776L145.064 55.072V53.6H154.12C155.272 53.6 156.328 53.696 157.288 53.888C158.248 54.0587 159.176 54.368 160.072 54.816C160.99 55.2427 161.704 55.8933 162.216 56.768C162.75 57.6213 163.016 58.656 163.016 59.872C163.016 62.7093 161.544 64.6293 158.6 65.632L163.048 73.856L165.864 74.56V76H160.04L154.76 66.112H151.944V73.824L154.888 74.528V76H145.064ZM151.944 64.192H153.8C155.358 64.192 156.606 63.808 157.544 63.04C158.504 62.272 158.984 61.1947 158.984 59.808C158.984 58.4427 158.515 57.408 157.576 56.704C156.638 55.9787 155.379 55.616 153.8 55.616H151.944V64.192ZM175.004 59.52C177.351 59.52 179.292 60.32 180.828 61.92C182.364 63.4987 183.132 65.5147 183.132 67.968C183.132 70.4427 182.364 72.48 180.828 74.08C179.292 75.68 177.351 76.48 175.004 76.48C172.657 76.48 170.705 75.68 169.148 74.08C167.612 72.48 166.844 70.4427 166.844 67.968C166.844 65.5147 167.612 63.4987 169.148 61.92C170.705 60.32 172.657 59.52 175.004 59.52ZM175.004 61.28C173.681 61.28 172.657 61.888 171.932 63.104C171.228 64.32 170.876 65.9413 170.876 67.968C170.876 69.9947 171.228 71.6267 171.932 72.864C172.657 74.1013 173.681 74.72 175.004 74.72C176.327 74.72 177.34 74.1013 178.044 72.864C178.769 71.6053 179.132 69.9733 179.132 67.968C179.132 65.9413 178.769 64.32 178.044 63.104C177.34 61.888 176.327 61.28 175.004 61.28ZM185.589 72.032C185.589 68.3413 188.863 66.496 195.413 66.496V65.376C195.413 63.52 195.146 62.3467 194.613 61.856C194.101 61.344 193.29 61.088 192.181 61.088L188.437 64.288C187.925 63.968 187.487 63.52 187.125 62.944C186.783 62.3467 186.602 61.7173 186.581 61.056C187.477 60.5653 188.458 60.192 189.525 59.936C190.591 59.6587 191.647 59.52 192.693 59.52C197.066 59.52 199.253 61.3547 199.253 65.024V73.92H201.749V74.976C201.258 75.4453 200.714 75.808 200.117 76.064C199.519 76.3413 198.933 76.48 198.357 76.48C197.098 76.48 196.17 75.936 195.573 74.848C194.143 75.936 192.533 76.48 190.741 76.48C189.333 76.48 188.117 76.1067 187.093 75.36C186.09 74.6133 185.589 73.504 185.589 72.032ZM189.621 71.904C189.621 72.6933 189.877 73.28 190.389 73.664C190.922 74.048 191.594 74.24 192.405 74.24C193.578 74.24 194.581 73.8773 195.413 73.152V68.128C193.493 68.128 192.042 68.48 191.061 69.184C190.101 69.8667 189.621 70.7733 189.621 71.904ZM203.501 68.576C203.501 65.696 204.386 63.4667 206.157 61.888C207.928 60.3093 210.072 59.52 212.589 59.52C213.485 59.52 214.264 59.616 214.925 59.808V52.992H212.205V51.616L217.325 50.4H218.765V73.92H221.261V74.976L220.749 75.392C220.536 75.5627 220.13 75.7867 219.533 76.064C218.957 76.3413 218.392 76.48 217.837 76.48C217.602 76.48 217.368 76.448 217.133 76.384C216.92 76.3413 216.728 76.2773 216.557 76.192C216.386 76.1067 216.226 76.0107 216.077 75.904C215.928 75.776 215.8 75.6587 215.693 75.552C215.608 75.4453 215.512 75.328 215.405 75.2C215.32 75.072 215.256 74.9653 215.213 74.88C215.17 74.7947 215.117 74.6987 215.053 74.592L214.989 74.464C213.709 75.808 212.13 76.48 210.253 76.48C208.397 76.48 206.808 75.808 205.485 74.464C204.162 73.0987 203.501 71.136 203.501 68.576ZM207.437 68.448C207.437 70.2827 207.842 71.68 208.653 72.64C209.485 73.6 210.466 74.08 211.597 74.08C212.792 74.08 213.901 73.6853 214.925 72.896V61.6C214.264 61.3867 213.581 61.28 212.877 61.28C211.256 61.28 209.944 61.888 208.941 63.104C207.938 64.32 207.437 66.1013 207.437 68.448Z" fill="black"/>
</svg>
