
<svg width="322" height="322" viewBox="0 0 322 322" fill="none" xmlns="http://www.w3.org/2000/svg">
<path d="M88.9393 137.444C88.065 127.087 96.606 118.378 106.977 119.049L217.543 126.208C226.487 126.787 233.444 134.21 233.444 143.173V190.47C233.444 200.338 225.071 208.133 215.229 207.427L108.615 199.783C100.266 199.184 93.5951 192.597 92.891 184.256L88.9393 137.444Z" fill="black"/>
<g filter="url(#filter0_d_10_19)">
<path d="M40.0078 297.071C41.8411 297.071 43.2911 296.871 44.3578 296.471C45.4244 296.071 46.2744 295.437 46.9078 294.571C47.5411 293.704 48.1578 292.437 48.7578 290.771C49.7244 291.071 50.4578 291.471 50.9578 291.971C50.3244 293.937 49.8078 296.421 49.4078 299.421C46.8078 299.354 43.5744 299.321 39.7078 299.321C33.5744 299.321 29.2578 299.371 26.7578 299.471C26.7578 298.504 26.8411 297.787 27.0078 297.321C27.9411 297.254 28.6411 297.087 29.1078 296.821C29.6078 296.554 29.9578 296.087 30.1578 295.421C30.3911 294.721 30.5078 293.721 30.5078 292.421V271.871C30.5078 270.204 30.2578 269.087 29.7578 268.521C29.2911 267.921 28.3911 267.587 27.0578 267.521C26.8911 267.054 26.8078 266.337 26.8078 265.371C28.7411 265.471 30.7578 265.521 32.8578 265.521C34.8911 265.521 36.9078 265.471 38.9078 265.371C38.9078 266.337 38.8244 267.054 38.6578 267.521C37.7244 267.587 37.0078 267.754 36.5078 268.021C36.0411 268.254 35.7078 268.687 35.5078 269.321C35.3078 269.954 35.2078 270.854 35.2078 272.021V292.421C35.2078 293.721 35.3244 294.687 35.5578 295.321C35.7911 295.954 36.2244 296.404 36.8578 296.671C37.4911 296.937 38.4411 297.071 39.7078 297.071H40.0078ZM55.7363 299.421C55.7363 298.387 55.8196 297.637 55.9863 297.171C56.8196 297.104 57.4363 296.971 57.8363 296.771C58.2696 296.571 58.5696 296.221 58.7363 295.721C58.9029 295.221 58.9863 294.471 58.9863 293.471V280.121C58.9863 279.154 58.9029 278.421 58.7363 277.921C58.5696 277.421 58.2696 277.071 57.8363 276.871C57.4363 276.671 56.8196 276.537 55.9863 276.471C55.8196 275.971 55.7363 275.221 55.7363 274.221C57.8696 274.287 59.7363 274.321 61.3363 274.321C62.6696 274.321 64.5029 274.287 66.8363 274.221C66.8363 275.254 66.7696 276.004 66.6363 276.471C65.4363 276.537 64.6196 276.804 64.1863 277.271C63.7863 277.737 63.5863 278.687 63.5863 280.121V293.471C63.5863 294.904 63.7863 295.871 64.1863 296.371C64.6196 296.837 65.4363 297.104 66.6363 297.171C66.7696 297.671 66.8363 298.421 66.8363 299.421C64.5696 299.354 62.7363 299.321 61.3363 299.321C59.6696 299.321 57.8029 299.354 55.7363 299.421ZM96.6375 274.321C97.9375 274.321 99.4208 274.287 101.087 274.221C101.087 275.121 101.004 275.837 100.837 276.371C99.5041 276.604 98.2875 277.987 97.1875 280.521C94.5541 286.321 91.4875 292.604 87.9875 299.371C87.4875 299.537 86.8375 299.621 86.0375 299.621C82.9375 292.887 79.9041 286.654 76.9375 280.921C76.2041 279.454 75.6708 278.471 75.3375 277.971C75.0375 277.437 74.7208 277.054 74.3875 276.821C74.0875 276.587 73.6708 276.437 73.1375 276.371C72.9708 275.904 72.8875 275.187 72.8875 274.221C74.4875 274.287 76.3208 274.321 78.3875 274.321C79.6875 274.321 81.5375 274.287 83.9375 274.221C83.9375 275.054 83.8541 275.771 83.6875 276.371C82.8208 276.437 82.1708 276.571 81.7375 276.771C81.3375 276.971 81.1375 277.304 81.1375 277.771C81.1375 278.371 81.4541 279.237 82.0875 280.371C84.4208 284.704 86.5041 288.971 88.3375 293.171C91.0708 287.837 93.1208 283.637 94.4875 280.571C94.8875 279.671 95.0875 278.904 95.0875 278.271C95.0875 277.137 94.3875 276.504 92.9875 276.371C92.8208 275.904 92.7375 275.187 92.7375 274.221C94.4041 274.287 95.7041 274.321 96.6375 274.321ZM127.552 292.221C128.452 292.387 129.186 292.754 129.752 293.321C129.152 294.887 128.702 296.904 128.402 299.371L118.752 299.321C113.952 299.321 110.086 299.354 107.152 299.421C107.152 298.387 107.236 297.637 107.402 297.171C108.236 297.104 108.852 296.971 109.252 296.771C109.686 296.571 109.986 296.204 110.152 295.671C110.319 295.137 110.402 294.337 110.402 293.271V280.121C110.402 279.154 110.302 278.421 110.102 277.921C109.936 277.421 109.636 277.071 109.202 276.871C108.802 276.671 108.202 276.537 107.402 276.471C107.236 275.971 107.152 275.221 107.152 274.221C109.552 274.287 112.169 274.321 115.002 274.321C121.136 274.321 125.236 274.287 127.302 274.221C127.669 277.354 127.986 279.421 128.252 280.421C127.686 280.787 126.936 280.971 126.002 280.971C125.869 279.571 125.286 278.471 124.252 277.671C123.252 276.871 121.469 276.471 118.902 276.471H115.002V285.671H117.502C119.269 285.671 120.486 285.471 121.152 285.071C121.852 284.671 122.219 283.937 122.252 282.871C122.986 282.637 123.752 282.521 124.552 282.521C124.486 283.354 124.452 284.754 124.452 286.721C124.452 288.854 124.486 290.304 124.552 291.071C123.652 291.071 122.919 290.971 122.352 290.771C122.252 289.671 121.852 288.921 121.152 288.521C120.486 288.121 119.269 287.921 117.502 287.921H115.002V293.171C115.002 294.237 115.102 295.054 115.302 295.621C115.536 296.154 115.919 296.537 116.452 296.771C117.019 296.971 117.852 297.071 118.952 297.071H119.252C121.186 297.071 122.669 296.904 123.702 296.571C124.769 296.237 125.552 295.754 126.052 295.121C126.586 294.454 127.086 293.487 127.552 292.221ZM148.746 265.421C152.646 265.421 155.512 266.337 157.346 268.171C159.179 269.971 160.096 272.287 160.096 275.121C160.096 277.121 159.662 279.004 158.796 280.771C157.929 282.504 156.629 283.921 154.896 285.021C153.196 286.121 151.146 286.671 148.746 286.671C147.346 286.671 146.179 286.487 145.246 286.121C145.179 285.721 145.146 285.404 145.146 285.171C145.146 284.771 145.196 284.404 145.296 284.071C146.129 284.271 147.012 284.371 147.946 284.371C152.646 284.371 154.996 281.771 154.996 276.571C154.996 273.771 154.312 271.587 152.946 270.021C151.579 268.421 149.446 267.621 146.546 267.621C145.812 267.621 144.962 267.721 143.996 267.921V291.971C143.996 293.404 144.146 294.504 144.446 295.271C144.746 296.004 145.196 296.521 145.796 296.821C146.429 297.087 147.312 297.254 148.446 297.321C148.612 297.787 148.696 298.504 148.696 299.471C147.162 299.371 145.062 299.321 142.396 299.321C139.162 299.321 136.896 299.371 135.596 299.471C135.596 298.504 135.679 297.787 135.846 297.321C137.179 297.254 138.079 296.937 138.546 296.371C139.046 295.771 139.296 294.637 139.296 292.971V271.871C139.296 270.204 139.046 269.087 138.546 268.521C138.079 267.921 137.179 267.587 135.846 267.521C135.679 267.054 135.596 266.337 135.596 265.371C137.329 265.471 139.596 265.521 142.396 265.521L148.746 265.421ZM191.048 293.621C191.048 295.054 191.248 296.021 191.648 296.521C192.082 296.987 192.882 297.254 194.048 297.321C194.215 297.721 194.298 298.421 194.298 299.421C192.032 299.354 190.198 299.321 188.798 299.321C187.132 299.321 185.265 299.354 183.198 299.421C183.198 298.421 183.282 297.721 183.448 297.321C184.615 297.254 185.398 296.987 185.798 296.521C186.232 296.021 186.448 295.054 186.448 293.621V287.521C180.048 287.521 175.732 287.604 173.498 287.771V293.621C173.498 295.054 173.698 296.021 174.098 296.521C174.532 296.987 175.348 297.254 176.548 297.321C176.682 297.754 176.748 298.454 176.748 299.421C174.482 299.354 172.648 299.321 171.248 299.321C169.582 299.321 167.715 299.354 165.648 299.421C165.648 298.421 165.732 297.721 165.898 297.321C166.732 297.254 167.348 297.121 167.748 296.921C168.182 296.721 168.482 296.371 168.648 295.871C168.815 295.371 168.898 294.621 168.898 293.621V279.971C168.898 279.004 168.815 278.271 168.648 277.771C168.482 277.271 168.182 276.921 167.748 276.721C167.348 276.521 166.732 276.387 165.898 276.321C165.732 275.854 165.648 275.154 165.648 274.221C167.782 274.287 169.648 274.321 171.248 274.321C172.582 274.321 174.415 274.287 176.748 274.221C176.748 275.187 176.682 275.887 176.548 276.321C175.348 276.387 174.532 276.654 174.098 277.121C173.698 277.587 173.498 278.537 173.498 279.971V285.321H186.448V279.971C186.448 279.004 186.348 278.271 186.148 277.771C185.982 277.271 185.682 276.921 185.248 276.721C184.848 276.521 184.232 276.387 183.398 276.321C183.265 275.821 183.198 275.121 183.198 274.221C185.332 274.287 187.182 274.321 188.748 274.321C190.115 274.321 191.965 274.287 194.298 274.221C194.298 275.087 194.215 275.787 194.048 276.321C192.848 276.387 192.048 276.654 191.648 277.121C191.248 277.587 191.048 278.537 191.048 279.971V293.621ZM215.379 299.771C212.512 299.771 209.979 299.237 207.779 298.171C205.579 297.104 203.862 295.604 202.629 293.671C201.429 291.737 200.829 289.487 200.829 286.921C200.829 284.387 201.429 282.137 202.629 280.171C203.862 278.204 205.579 276.687 207.779 275.621C210.012 274.521 212.579 273.971 215.479 273.971C218.346 273.971 220.879 274.504 223.079 275.571C225.279 276.637 226.979 278.154 228.179 280.121C229.412 282.054 230.029 284.287 230.029 286.821C230.029 289.387 229.412 291.654 228.179 293.621C226.979 295.554 225.262 297.071 223.029 298.171C220.829 299.237 218.279 299.771 215.379 299.771ZM216.079 297.471C218.779 297.471 220.912 296.571 222.479 294.771C224.079 292.971 224.879 290.571 224.879 287.571C224.879 285.404 224.446 283.471 223.579 281.771C222.712 280.037 221.496 278.687 219.929 277.721C218.396 276.754 216.662 276.271 214.729 276.271C212.029 276.271 209.896 277.187 208.329 279.021C206.762 280.821 205.979 283.204 205.979 286.171C205.979 288.404 206.412 290.387 207.279 292.121C208.146 293.821 209.346 295.137 210.879 296.071C212.412 297.004 214.146 297.471 216.079 297.471ZM258.796 274.221C258.696 276.021 258.812 278.187 259.146 280.721C258.446 281.021 257.629 281.171 256.696 281.171C256.629 279.571 256.196 278.387 255.396 277.621C254.629 276.854 253.412 276.471 251.746 276.471H249.546V293.621C249.546 294.654 249.629 295.421 249.796 295.921C249.996 296.387 250.329 296.721 250.796 296.921C251.296 297.121 252.046 297.254 253.046 297.321C253.212 297.721 253.296 298.421 253.296 299.421C250.829 299.354 248.812 299.321 247.246 299.321C245.312 299.321 243.246 299.354 241.046 299.421C241.046 298.421 241.129 297.721 241.296 297.321C242.296 297.254 243.046 297.121 243.546 296.921C244.079 296.721 244.446 296.371 244.646 295.871C244.846 295.371 244.946 294.621 244.946 293.621V276.471H242.896C241.562 276.471 240.529 276.654 239.796 277.021C239.096 277.354 238.579 277.837 238.246 278.471C237.912 279.104 237.629 280.004 237.396 281.171C236.329 281.171 235.546 281.021 235.046 280.721C235.546 278.454 235.796 276.287 235.796 274.221C237.529 274.287 241.346 274.321 247.246 274.321C253.246 274.321 257.096 274.287 258.796 274.221ZM278.758 299.771C275.891 299.771 273.358 299.237 271.158 298.171C268.958 297.104 267.241 295.604 266.008 293.671C264.808 291.737 264.208 289.487 264.208 286.921C264.208 284.387 264.808 282.137 266.008 280.171C267.241 278.204 268.958 276.687 271.158 275.621C273.391 274.521 275.958 273.971 278.858 273.971C281.724 273.971 284.258 274.504 286.458 275.571C288.658 276.637 290.358 278.154 291.558 280.121C292.791 282.054 293.408 284.287 293.408 286.821C293.408 289.387 292.791 291.654 291.558 293.621C290.358 295.554 288.641 297.071 286.408 298.171C284.208 299.237 281.658 299.771 278.758 299.771ZM279.458 297.471C282.158 297.471 284.291 296.571 285.858 294.771C287.458 292.971 288.258 290.571 288.258 287.571C288.258 285.404 287.824 283.471 286.958 281.771C286.091 280.037 284.874 278.687 283.308 277.721C281.774 276.754 280.041 276.271 278.108 276.271C275.408 276.271 273.274 277.187 271.708 279.021C270.141 280.821 269.358 283.204 269.358 286.171C269.358 288.404 269.791 290.387 270.658 292.121C271.524 293.821 272.724 295.137 274.258 296.071C275.791 297.004 277.524 297.471 279.458 297.471Z" fill="black"/>
</g>
<path d="M196.114 163.555C196.114 182.72 181.284 198.256 162.991 198.256C144.697 198.256 129.867 182.72 129.867 163.555C129.867 144.39 144.697 128.854 162.991 128.854C181.284 128.854 196.114 144.39 196.114 163.555Z" fill="#B8A59F"/>
<path d="M129.341 98.32L187.176 95.6912V123.031L129.341 119.351V98.32Z" fill="black"/>
<path d="M114.619 59.4126L204.527 55.7322L200.846 94.1138L113.568 98.32L114.619 59.4126Z" fill="black"/>
<path d="M119.807 63.1434L199.795 60.4641L197.341 89.4898L118.825 93.0622L119.807 63.1434Z" fill="#E7DEDB"/>
<path d="M193.486 163.516C193.486 180.939 179.833 195.063 162.991 195.063C146.149 195.063 132.496 180.939 132.496 163.516C132.496 146.094 146.149 131.97 162.991 131.97C179.833 131.97 193.486 146.094 193.486 163.516Z" fill="black"/>
<path d="M34.8698 260.03C16.1918 236.241 4.62225 207.654 1.4969 177.57C-1.62845 147.487 3.81778 117.132 17.2069 90.0115C30.596 62.8908 51.382 40.1094 77.1654 24.2974C102.949 8.48541 132.678 0.287453 162.922 0.64993C193.165 1.01241 222.69 9.92054 248.087 26.346C273.484 42.7714 293.718 66.0444 306.453 93.4782C319.189 120.912 323.906 151.388 320.06 181.389C316.215 211.389 303.963 239.69 284.721 263.025L271.157 251.839C288.29 231.063 299.198 205.865 302.622 179.153C306.046 152.442 301.846 125.307 290.507 100.881C279.168 76.4547 261.152 55.7332 238.539 41.1086C215.927 26.4839 189.639 18.5524 162.711 18.2297C135.783 17.907 109.313 25.2061 86.3565 39.2846C63.3999 53.3631 44.8927 73.6468 32.9715 97.7943C21.0502 121.942 16.2011 148.968 18.9838 175.754C21.7665 202.539 32.0676 227.992 48.6979 249.173L34.8698 260.03Z" fill="black"/>
<circle cx="106.207" cy="130.918" r="6.30931" fill="#B8A59F"/>
<circle cx="106.207" cy="130.918" r="5.25776" fill="black"/>
<path d="M106.207 127.764L106.915 129.943H109.207L107.353 131.291L108.061 133.47L106.207 132.123L104.352 133.47L105.061 131.291L103.206 129.943H105.498L106.207 127.764Z" fill="#B8A59F"/>
<defs>
<filter id="filter0_d_10_19" x="22.7578" y="265.371" width="274.65" height="42.4" filterUnits="userSpaceOnUse" color-interpolation-filters="sRGB">
<feFlood flood-opacity="0" result="BackgroundImageFix"/>
<feColorMatrix in="SourceAlpha" type="matrix" values="0 0 0 0 0 0 0 0 0 0 0 0 0 0 0 0 0 0 127 0" result="hardAlpha"/>
<feOffset dy="4"/>
<feGaussianBlur stdDeviation="2"/>
<feComposite in2="hardAlpha" operator="out"/>
<feColorMatrix type="matrix" values="0 0 0 0 0 0 0 0 0 0 0 0 0 0 0 0 0 0 0.25 0"/>
<feBlend mode="normal" in2="BackgroundImageFix" result="effect1_dropShadow_10_19"/>
<feBlend mode="normal" in="SourceGraphic" in2="effect1_dropShadow_10_19" result="shape"/>
</filter>
</defs>
</svg>
