<svg width="561" height="786" viewBox="0 0 561 786" fill="none" xmlns="http://www.w3.org/2000/svg">
<path d="M376.11 544.202C438.025 521.754 490.067 478.235 523.119 421.27C556.171 364.306 568.124 297.527 556.886 232.634C545.647 167.741 511.933 108.872 461.65 66.3391C411.367 23.8066 347.721 0.323314 281.863 0.00331118C216.005 -0.316692 152.134 22.547 101.44 64.5889C50.7455 106.631 16.461 165.17 4.5924 229.951C-7.27618 294.731 4.028 361.623 36.5246 418.906C69.0212 476.189 120.638 520.212 182.332 543.261L195.719 507.428C142.438 487.522 97.8607 449.503 69.7957 400.032C41.7307 350.56 31.968 292.791 42.2181 236.844C52.4681 180.897 82.0772 130.341 125.858 94.0328C169.639 57.7242 224.8 37.9784 281.677 38.2548C338.554 38.5312 393.521 58.812 436.947 95.5444C480.373 132.277 509.489 183.118 519.195 239.162C528.901 295.205 518.577 352.877 490.033 402.074C461.488 451.27 416.543 488.854 363.072 508.241L376.11 544.202Z" fill="url(#paint0_radial_2_37)"/>
<path d="M204.217 349.474C151.904 367.481 107.933 402.389 80.0065 448.083C52.0805 493.776 41.9806 547.342 51.4762 599.395C60.9718 651.448 89.4574 698.67 131.943 732.787C174.428 766.904 228.203 785.741 283.848 785.997C339.493 786.254 393.459 767.914 436.292 734.191C479.124 700.467 508.092 653.511 518.12 601.548C528.148 549.585 518.597 495.928 491.14 449.979C463.683 404.03 420.071 368.718 367.944 350.229L356.633 378.972C401.651 394.939 439.316 425.436 463.028 465.119C486.741 504.802 494.99 551.141 486.329 596.018C477.669 640.895 452.651 681.448 415.66 710.573C378.669 739.697 332.062 755.536 284.005 755.314C235.949 755.093 189.507 738.825 152.815 709.36C116.124 679.896 91.5227 639.114 83.322 594.159C75.1213 549.204 83.8439 502.944 107.962 463.481C132.079 424.019 170.054 393.871 215.234 378.32L204.217 349.474Z" fill="url(#paint1_radial_2_37)"/>
<path d="M216.477 367.498C171.779 382.864 134.208 412.652 110.347 451.644C86.4865 490.636 77.8568 536.345 85.9702 580.764C94.0835 625.183 118.423 665.478 154.723 694.591C191.024 723.705 236.971 739.779 284.516 739.998C332.061 740.217 378.171 724.567 414.768 695.789C451.366 667.012 476.116 626.943 484.685 582.601C493.253 538.259 485.092 492.472 461.632 453.262C438.172 414.052 400.909 383.919 356.37 368.142L346.705 392.67C385.17 406.295 417.352 432.319 437.613 466.182C457.874 500.045 464.922 539.587 457.522 577.882C450.122 616.177 428.746 650.782 397.14 675.635C365.533 700.488 325.711 714.004 284.65 713.815C243.589 713.626 203.908 699.744 172.557 674.601C141.207 649.458 120.187 614.657 113.18 576.296C106.173 537.934 113.626 498.459 134.233 464.784C154.84 431.109 187.287 405.383 225.889 392.113L216.477 367.498Z" fill="url(#paint2_radial_2_37)"/>
<path d="M361.465 520.688C414.219 501.56 458.562 464.48 486.723 415.943C514.885 367.407 525.07 310.508 515.494 255.216C505.919 199.924 477.193 149.764 434.349 113.524C391.505 77.2844 337.276 57.2755 281.161 57.0028C225.047 56.7302 170.626 76.2112 127.432 112.033C84.2377 147.855 55.0256 197.733 44.913 252.929C34.8003 308.126 44.4321 365.121 72.1208 413.929C99.8095 462.737 143.789 500.246 196.356 519.885L207.762 489.354C162.365 472.393 124.382 439.999 100.469 397.847C76.5566 355.695 68.2384 306.472 76.9719 258.803C85.7055 211.134 110.934 168.057 148.237 137.121C185.541 106.184 232.541 89.3595 281.003 89.595C329.465 89.8305 376.299 107.111 413.3 138.409C450.301 169.706 475.11 213.026 483.38 260.778C491.65 308.53 482.854 357.669 458.532 399.587C434.211 441.505 395.916 473.528 350.355 490.047L361.465 520.688Z" fill="url(#paint3_radial_2_37)"/>
<path fill-rule="evenodd" clip-rule="evenodd" d="M195.175 231.255L171.92 208H138.761L140.095 209.335L118.175 231.255L100 213.08V249.43L118.175 231.255L141.51 254.589L119.589 276.51L100 256.92V296.099L119.589 276.51L141.08 298H159.159L136.335 275.175L158.255 253.255L181.589 276.589L160.179 298H175.099L196.589 276.51L218.08 298H241V659H329V298H373.159L350.335 275.175L372.255 253.255L395.589 276.589L374.179 298H390.019L411.51 276.51L433 298H449.159L426.335 275.175L448.255 253.255L470 275V231.51L448.255 253.255L424.92 229.92L446.841 208L470 231.159V208H446.841H430.681L432.016 209.335L410.095 231.255L386.841 208H370.841H215.761L217.095 209.335L195.175 231.255ZM410.095 231.255L433.43 254.589L411.51 276.51L388.175 253.175L410.095 231.255ZM370.841 208L394.175 231.335L372.255 253.255L348.92 229.92L370.841 208ZM195.175 231.255L218.51 254.589L196.589 276.51L173.255 253.175L195.175 231.255ZM180.175 231.335L158.255 253.255L134.92 229.92L156.841 208L180.175 231.335ZM470 298H450.179L470 278.179V298ZM309.163 634.844L285.828 611.51L307.749 589.589L284.414 566.255L306.335 544.335L283 521L261.08 542.92L284.414 566.255L262.494 588.175L285.828 611.51L263.908 633.43L287.243 656.764L309.163 634.844Z" fill="url(#paint4_linear_2_37)"/>
<path fill-rule="evenodd" clip-rule="evenodd" d="M195.175 231.255L171.92 208H138.761L140.095 209.335L118.175 231.255L100 213.08V249.43L118.175 231.255L141.51 254.589L119.589 276.51L100 256.92V296.099L119.589 276.51L141.08 298H159.159L136.335 275.175L158.255 253.255L181.589 276.589L160.179 298H175.099L196.589 276.51L218.08 298H241V659H329V298H373.159L350.335 275.175L372.255 253.255L395.589 276.589L374.179 298H390.019L411.51 276.51L433 298H449.159L426.335 275.175L448.255 253.255L470 275V231.51L448.255 253.255L424.92 229.92L446.841 208L470 231.159V208H446.841H430.681L432.016 209.335L410.095 231.255L386.841 208H370.841H215.761L217.095 209.335L195.175 231.255ZM410.095 231.255L433.43 254.589L411.51 276.51L388.175 253.175L410.095 231.255ZM370.841 208L394.175 231.335L372.255 253.255L348.92 229.92L370.841 208ZM195.175 231.255L218.51 254.589L196.589 276.51L173.255 253.175L195.175 231.255ZM180.175 231.335L158.255 253.255L134.92 229.92L156.841 208L180.175 231.335ZM470 298H450.179L470 278.179V298ZM309.163 634.844L285.828 611.51L307.749 589.589L284.414 566.255L306.335 544.335L283 521L261.08 542.92L284.414 566.255L262.494 588.175L285.828 611.51L263.908 633.43L287.243 656.764L309.163 634.844Z" fill="black" fill-opacity="0.2"/>
<defs>
<radialGradient id="paint0_radial_2_37" cx="0" cy="0" r="1" gradientUnits="userSpaceOnUse" gradientTransform="translate(280.5 280.5) rotate(90) scale(280.5)">
<stop stop-color="#FF0C0C"/>
<stop offset="1" stop-color="#FF0404" stop-opacity="0"/>
</radialGradient>
<radialGradient id="paint1_radial_2_37" cx="0" cy="0" r="1" gradientUnits="userSpaceOnUse" gradientTransform="translate(285 561) rotate(-90) scale(225 237)">
<stop stop-color="#C0BA99"/>
<stop offset="1" stop-color="#FF0404" stop-opacity="0"/>
</radialGradient>
<radialGradient id="paint2_radial_2_37" cx="0" cy="0" r="1" gradientUnits="userSpaceOnUse" gradientTransform="translate(285.5 548) rotate(-90) scale(192 202.5)">
<stop stop-color="#0BFFC5"/>
<stop offset="1" stop-color="#08D3FF" stop-opacity="0"/>
</radialGradient>
<radialGradient id="paint3_radial_2_37" cx="0" cy="0" r="1" gradientUnits="userSpaceOnUse" gradientTransform="translate(280 296) rotate(90) scale(239)">
<stop stop-color="#17FFC7"/>
<stop offset="1" stop-color="#FF04F5" stop-opacity="0"/>
</radialGradient>
<linearGradient id="paint4_linear_2_37" x1="117.5" y1="553.5" x2="711.465" y2="161.459" gradientUnits="userSpaceOnUse">
<stop stop-color="#B63737"/>
<stop offset="0.305144" stop-color="#662F69"/>
<stop offset="0.899999" stop-color="#1FADC5"/>
</linearGradient>
</defs>
</svg>
