<svg width="561" height="786" viewBox="0 0 561 786" fill="none" xmlns="http://www.w3.org/2000/svg">
<path d="M376.11 544.202C438.025 521.754 490.067 478.235 523.119 421.27C556.171 364.306 568.124 297.527 556.886 232.634C545.647 167.741 511.933 108.872 461.65 66.3391C411.367 23.8066 347.721 0.323314 281.863 0.00331118C216.005 -0.316692 152.134 22.547 101.44 64.5889C50.7455 106.631 16.461 165.17 4.5924 229.951C-7.27618 294.731 4.028 361.623 36.5246 418.906C69.0212 476.189 120.638 520.212 182.332 543.261L195.719 507.428C142.438 487.522 97.8607 449.503 69.7957 400.032C41.7307 350.56 31.968 292.791 42.2181 236.844C52.4681 180.897 82.0772 130.341 125.858 94.0328C169.639 57.7242 224.8 37.9784 281.677 38.2548C338.554 38.5312 393.521 58.812 436.947 95.5444C480.373 132.277 509.489 183.118 519.195 239.162C528.901 295.205 518.577 352.877 490.033 402.074C461.488 451.27 416.543 488.854 363.072 508.241L376.11 544.202Z" fill="url(#paint0_radial_3_51)"/>
<path d="M200.217 349.474C147.904 367.481 103.933 402.389 76.0065 448.083C48.0805 493.776 37.9806 547.342 47.4762 599.395C56.9718 651.448 85.4574 698.67 127.943 732.787C170.428 766.904 224.203 785.741 279.848 785.997C335.493 786.254 389.459 767.914 432.292 734.191C475.124 700.467 504.092 653.511 514.12 601.548C524.148 549.585 514.597 495.928 487.14 449.979C459.683 404.03 416.071 368.718 363.944 350.229L352.633 378.972C397.651 394.939 435.316 425.436 459.028 465.119C482.741 504.802 490.99 551.141 482.329 596.018C473.669 640.895 448.651 681.448 411.66 710.573C374.669 739.697 328.062 755.536 280.005 755.314C231.949 755.093 185.507 738.825 148.815 709.36C112.124 679.896 87.5227 639.114 79.322 594.159C71.1213 549.204 79.8439 502.944 103.962 463.481C128.079 424.019 166.054 393.871 211.234 378.32L200.217 349.474Z" fill="url(#paint1_radial_3_51)"/>
<path d="M212.477 367.498C167.779 382.864 130.208 412.652 106.347 451.644C82.4865 490.636 73.8568 536.345 81.9702 580.764C90.0835 625.183 114.423 665.478 150.723 694.591C187.024 723.705 232.971 739.779 280.516 739.998C328.061 740.217 374.171 724.567 410.768 695.789C447.366 667.012 472.116 626.943 480.685 582.601C489.253 538.259 481.092 492.472 457.632 453.262C434.172 414.052 396.909 383.919 352.37 368.142L342.705 392.67C381.17 406.295 413.352 432.319 433.613 466.182C453.874 500.045 460.922 539.587 453.522 577.882C446.122 616.177 424.746 650.782 393.14 675.635C361.533 700.488 321.711 714.004 280.65 713.815C239.589 713.626 199.908 699.744 168.557 674.601C137.207 649.458 116.187 614.657 109.18 576.296C102.173 537.934 109.626 498.459 130.233 464.784C150.84 431.109 183.287 405.383 221.889 392.113L212.477 367.498Z" fill="url(#paint2_radial_3_51)"/>
<path fill-rule="evenodd" clip-rule="evenodd" d="M466 208H96V298H237V659H325V298H434.877V268.006H466V208ZM371 208V238.003L402.939 238.003L402.939 268.006L434.877 268.006V238.003L402.939 238.003L402.939 208L371 208Z" fill="url(#paint3_linear_3_51)"/>
<path fill-rule="evenodd" clip-rule="evenodd" d="M466 208H96V298H237V659H325V298H434.877V268.006H466V208ZM371 208V238.003L402.939 238.003L402.939 268.006L434.877 268.006V238.003L402.939 238.003L402.939 208L371 208Z" fill="black" fill-opacity="0.2"/>
<path d="M361.465 520.688C414.219 501.56 458.562 464.48 486.723 415.943C514.885 367.407 525.07 310.508 515.494 255.216C505.919 199.924 477.193 149.764 434.349 113.524C391.505 77.2844 337.276 57.2755 281.161 57.0028C225.047 56.7302 170.626 76.2112 127.432 112.033C84.2377 147.855 55.0256 197.733 44.913 252.929C34.8003 308.126 44.4321 365.121 72.1208 413.929C99.8095 462.737 143.789 500.246 196.356 519.885L207.762 489.354C162.365 472.393 124.382 439.999 100.469 397.847C76.5566 355.695 68.2384 306.472 76.9719 258.803C85.7055 211.134 110.934 168.057 148.237 137.121C185.541 106.184 232.541 89.3595 281.003 89.595C329.465 89.8305 376.299 107.111 413.3 138.409C450.301 169.706 475.11 213.026 483.38 260.778C491.65 308.53 482.854 357.669 458.532 399.587C434.211 441.505 395.916 473.528 350.355 490.047L361.465 520.688Z" fill="url(#paint4_radial_3_51)"/>
<defs>
<radialGradient id="paint0_radial_3_51" cx="0" cy="0" r="1" gradientUnits="userSpaceOnUse" gradientTransform="translate(280.5 280.5) rotate(90) scale(280.5)">
<stop stop-color="#FF0C0C"/>
<stop offset="1" stop-color="#FF0404" stop-opacity="0"/>
</radialGradient>
<radialGradient id="paint1_radial_3_51" cx="0" cy="0" r="1" gradientUnits="userSpaceOnUse" gradientTransform="translate(281 561) rotate(-90) scale(225 237)">
<stop stop-color="#C0BA99"/>
<stop offset="1" stop-color="#FF0404" stop-opacity="0"/>
</radialGradient>
<radialGradient id="paint2_radial_3_51" cx="0" cy="0" r="1" gradientUnits="userSpaceOnUse" gradientTransform="translate(281.5 548) rotate(-90) scale(192 202.5)">
<stop stop-color="#0BFFC5"/>
<stop offset="1" stop-color="#08D3FF" stop-opacity="0"/>
</radialGradient>
<linearGradient id="paint3_linear_3_51" x1="113.5" y1="553.5" x2="707.465" y2="161.459" gradientUnits="userSpaceOnUse">
<stop stop-color="#B63737"/>
<stop offset="0.305144" stop-color="#662F69"/>
<stop offset="0.899999" stop-color="#1FADC5"/>
</linearGradient>
<radialGradient id="paint4_radial_3_51" cx="0" cy="0" r="1" gradientUnits="userSpaceOnUse" gradientTransform="translate(280 296) rotate(90) scale(239)">
<stop stop-color="#17FFC7"/>
<stop offset="1" stop-color="#FF04F5" stop-opacity="0"/>
</radialGradient>
</defs>
</svg>
