<svg width="561" height="786" viewBox="0 0 561 786" fill="none" xmlns="http://www.w3.org/2000/svg">
<rect x="104" y="220" width="370" height="451" fill="url(#paint0_linear_17_2)"/>
<rect x="104" y="220" width="370" height="451" fill="black" fill-opacity="0.2"/>
<rect x="104" y="310" width="141" height="361" fill="#1E1E1E"/>
<rect x="333" y="310" width="141" height="361" fill="#1E1E1E"/>
<path d="M376.11 544.202C438.025 521.754 490.067 478.235 523.119 421.27C556.171 364.306 568.124 297.527 556.886 232.634C545.647 167.741 511.933 108.872 461.65 66.3391C411.367 23.8066 347.721 0.323314 281.863 0.00331118C216.005 -0.316692 152.134 22.547 101.44 64.5889C50.7455 106.631 16.461 165.17 4.5924 229.951C-7.27618 294.731 4.028 361.623 36.5246 418.906C69.0212 476.189 120.638 520.212 182.332 543.261L195.719 507.428C142.438 487.522 97.8607 449.503 69.7957 400.032C41.7307 350.56 31.968 292.791 42.2181 236.844C52.4681 180.897 82.0772 130.341 125.858 94.0328C169.639 57.7242 224.8 37.9784 281.677 38.2548C338.554 38.5312 393.521 58.812 436.947 95.5444C480.373 132.277 509.489 183.118 519.195 239.162C528.901 295.205 518.577 352.877 490.033 402.074C461.488 451.27 416.543 488.854 363.072 508.241L376.11 544.202Z" fill="url(#paint1_radial_17_2)"/>
<path d="M204.217 349.474C151.904 367.481 107.933 402.389 80.0065 448.083C52.0804 493.776 41.9805 547.342 51.4762 599.395C60.9718 651.448 89.4574 698.67 131.943 732.787C174.428 766.904 228.203 785.741 283.848 785.997C339.493 786.254 393.459 767.914 436.292 734.191C479.124 700.467 508.092 653.511 518.12 601.548C528.148 549.585 518.597 495.928 491.14 449.979C463.683 404.03 420.071 368.718 367.944 350.229L356.633 378.972C401.651 394.939 439.316 425.436 463.028 465.119C486.741 504.802 494.99 551.141 486.329 596.018C477.669 640.895 452.651 681.448 415.66 710.573C378.669 739.697 332.062 755.536 284.005 755.314C235.949 755.093 189.507 738.825 152.815 709.36C116.124 679.896 91.5227 639.114 83.322 594.159C75.1212 549.204 83.8438 502.944 107.962 463.481C132.079 424.019 170.054 393.871 215.234 378.32L204.217 349.474Z" fill="url(#paint2_radial_17_2)"/>
<path d="M216.477 367.498C171.779 382.864 134.208 412.652 110.347 451.644C86.4864 490.636 77.8568 536.345 85.9701 580.764C94.0835 625.183 118.422 665.478 154.723 694.591C191.024 723.705 236.971 739.779 284.516 739.998C332.061 740.217 378.171 724.567 414.768 695.789C451.366 667.012 476.116 626.943 484.685 582.601C493.253 538.259 485.092 492.472 461.632 453.262C438.172 414.052 400.909 383.919 356.37 368.142L346.705 392.67C385.17 406.295 417.352 432.319 437.613 466.182C457.874 500.045 464.921 539.587 457.522 577.882C450.122 616.177 428.746 650.782 397.14 675.635C365.533 700.488 325.711 714.004 284.65 713.815C243.589 713.626 203.908 699.744 172.557 674.601C141.207 649.458 120.187 614.657 113.18 576.296C106.173 537.934 113.626 498.459 134.233 464.784C154.84 431.109 187.287 405.383 225.889 392.113L216.477 367.498Z" fill="url(#paint3_radial_17_2)"/>
<path d="M361.465 520.688C414.219 501.56 458.562 464.48 486.723 415.943C514.885 367.407 525.07 310.508 515.494 255.216C505.919 199.924 477.193 149.764 434.349 113.524C391.505 77.2844 337.276 57.2755 281.161 57.0028C225.047 56.7302 170.626 76.2112 127.432 112.033C84.2377 147.855 55.0256 197.733 44.913 252.929C34.8003 308.126 44.4321 365.121 72.1208 413.929C99.8095 462.737 143.789 500.246 196.356 519.885L207.762 489.354C162.365 472.393 124.382 439.999 100.469 397.847C76.5566 355.695 68.2384 306.472 76.9719 258.803C85.7055 211.134 110.934 168.057 148.237 137.121C185.541 106.184 232.541 89.3595 281.003 89.595C329.465 89.8305 376.299 107.111 413.3 138.409C450.301 169.706 475.11 213.026 483.38 260.778C491.65 308.53 482.854 357.669 458.532 399.587C434.211 441.505 395.916 473.528 350.355 490.047L361.465 520.688Z" fill="url(#paint4_radial_17_2)"/>
<rect x="187" y="236" width="20" height="20" rx="10" transform="rotate(90 187 236)" fill="url(#paint5_diamond_17_2)"/>
<rect x="197" y="271" width="16" height="16" rx="8" transform="rotate(90 197 271)" fill="url(#paint6_diamond_17_2)"/>
<rect x="163" y="268" width="28" height="28" rx="11" transform="rotate(90 163 268)" fill="url(#paint7_diamond_17_2)"/>
<rect x="149" y="215" width="49" height="49" rx="11" transform="rotate(90 149 215)" fill="url(#paint8_diamond_17_2)"/>
<rect width="20" height="20" rx="10" transform="matrix(4.37114e-08 1 1 -4.37114e-08 389 236)" fill="url(#paint9_diamond_17_2)"/>
<rect width="16" height="16" rx="8" transform="matrix(4.37114e-08 1 1 -4.37114e-08 379 271)" fill="url(#paint10_diamond_17_2)"/>
<rect width="28" height="28" rx="11" transform="matrix(4.37114e-08 1 1 -4.37114e-08 413 268)" fill="url(#paint11_diamond_17_2)"/>
<rect width="49" height="49" rx="11" transform="matrix(4.37114e-08 1 1 -4.37114e-08 427 215)" fill="url(#paint12_diamond_17_2)"/>
<rect x="314" y="622" width="49" height="49" rx="11" transform="rotate(90 314 622)" fill="url(#paint13_diamond_17_2)"/>
<rect x="314" y="622" width="49" height="49" rx="11" transform="rotate(90 314 622)" fill="url(#paint14_diamond_17_2)"/>
<rect x="314" y="670" width="49" height="48" rx="11" transform="rotate(-180 314 670)" fill="url(#paint15_diamond_17_2)"/>
<rect x="314" y="671" width="49" height="49" rx="11" transform="rotate(-180 314 671)" fill="url(#paint16_diamond_17_2)"/>
<path d="M290.5 549.5L251.092 509.342V509.342C243.399 499.466 246.318 485.058 257.248 478.955L260.761 476.994L264.342 476.233C276.573 473.634 288.123 482.875 288.272 495.377V495.377" stroke="#1E1E1E" stroke-width="8"/>
<path d="M288.244 494.422V494.422C289.756 481.996 301.987 473.84 314.04 477.222L317.913 478.309L320.989 480.296C331.492 487.079 333.164 501.776 324.452 510.745V510.745L285 549.5" stroke="#1E1E1E" stroke-width="8"/>
<path d="M263 505C263 498.925 267.925 494 274 494H302C308.075 494 313 498.925 313 505V533C313 539.075 308.075 544 302 544H274C267.925 544 263 539.075 263 533V505Z" fill="url(#paint17_diamond_17_2)"/>
<path d="M242 484C242 477.925 246.925 473 253 473H281C287.075 473 292 477.925 292 484V512C292 518.075 287.075 523 281 523H253C246.925 523 242 518.075 242 512V484Z" fill="url(#paint18_diamond_17_2)"/>
<path d="M283 485C283 478.925 287.925 474 294 474H322C328.075 474 333 478.925 333 485V513C333 519.075 328.075 524 322 524H294C287.925 524 283 519.075 283 513V485Z" fill="url(#paint19_diamond_17_2)"/>
<defs>
<linearGradient id="paint0_linear_17_2" x1="68" y1="611.5" x2="749.694" y2="217.943" gradientUnits="userSpaceOnUse">
<stop stop-color="#52FCAB"/>
<stop offset="0.368013" stop-color="#662F69"/>
<stop offset="0.830505" stop-color="#1FADC5"/>
</linearGradient>
<radialGradient id="paint1_radial_17_2" cx="0" cy="0" r="1" gradientUnits="userSpaceOnUse" gradientTransform="translate(280.5 280.5) rotate(90) scale(280.5)">
<stop stop-color="#FF0C0C"/>
<stop offset="1" stop-color="#FF0404" stop-opacity="0"/>
</radialGradient>
<radialGradient id="paint2_radial_17_2" cx="0" cy="0" r="1" gradientUnits="userSpaceOnUse" gradientTransform="translate(285 561) rotate(-90) scale(225 237)">
<stop stop-color="#C0BA99"/>
<stop offset="1" stop-color="#FF0404" stop-opacity="0"/>
</radialGradient>
<radialGradient id="paint3_radial_17_2" cx="0" cy="0" r="1" gradientUnits="userSpaceOnUse" gradientTransform="translate(285.5 548) rotate(-90) scale(192 202.5)">
<stop stop-color="#0BFFC5"/>
<stop offset="1" stop-color="#08D3FF" stop-opacity="0"/>
</radialGradient>
<radialGradient id="paint4_radial_17_2" cx="0" cy="0" r="1" gradientUnits="userSpaceOnUse" gradientTransform="translate(280 296) rotate(90) scale(239)">
<stop stop-color="#17FFC7"/>
<stop offset="1" stop-color="#FF04F5" stop-opacity="0"/>
</radialGradient>
<radialGradient id="paint5_diamond_17_2" cx="0" cy="0" r="1" gradientUnits="userSpaceOnUse" gradientTransform="translate(197 246) rotate(90) scale(10)">
<stop stop-color="white"/>
<stop offset="1" stop-color="#883C9B" stop-opacity="0"/>
</radialGradient>
<radialGradient id="paint6_diamond_17_2" cx="0" cy="0" r="1" gradientUnits="userSpaceOnUse" gradientTransform="translate(205 279) rotate(90) scale(8)">
<stop stop-color="white"/>
<stop offset="1" stop-color="#883C9B" stop-opacity="0"/>
</radialGradient>
<radialGradient id="paint7_diamond_17_2" cx="0" cy="0" r="1" gradientUnits="userSpaceOnUse" gradientTransform="translate(177 282) rotate(90) scale(14 14)">
<stop stop-color="white"/>
<stop offset="1" stop-color="#883C9B" stop-opacity="0"/>
</radialGradient>
<radialGradient id="paint8_diamond_17_2" cx="0" cy="0" r="1" gradientUnits="userSpaceOnUse" gradientTransform="translate(173.5 239.5) rotate(90) scale(24.5 24.5)">
<stop stop-color="white"/>
<stop offset="1" stop-color="#883C9B" stop-opacity="0"/>
</radialGradient>
<radialGradient id="paint9_diamond_17_2" cx="0" cy="0" r="1" gradientUnits="userSpaceOnUse" gradientTransform="translate(10 10) rotate(90) scale(10)">
<stop stop-color="white"/>
<stop offset="1" stop-color="#883C9B" stop-opacity="0"/>
</radialGradient>
<radialGradient id="paint10_diamond_17_2" cx="0" cy="0" r="1" gradientUnits="userSpaceOnUse" gradientTransform="translate(8 8) rotate(90) scale(8)">
<stop stop-color="white"/>
<stop offset="1" stop-color="#883C9B" stop-opacity="0"/>
</radialGradient>
<radialGradient id="paint11_diamond_17_2" cx="0" cy="0" r="1" gradientUnits="userSpaceOnUse" gradientTransform="translate(14 14) rotate(90) scale(14 14)">
<stop stop-color="white"/>
<stop offset="1" stop-color="#883C9B" stop-opacity="0"/>
</radialGradient>
<radialGradient id="paint12_diamond_17_2" cx="0" cy="0" r="1" gradientUnits="userSpaceOnUse" gradientTransform="translate(24.5 24.5) rotate(90) scale(24.5 24.5)">
<stop stop-color="white"/>
<stop offset="1" stop-color="#883C9B" stop-opacity="0"/>
</radialGradient>
<radialGradient id="paint13_diamond_17_2" cx="0" cy="0" r="1" gradientUnits="userSpaceOnUse" gradientTransform="translate(338.5 646.5) rotate(90) scale(24.5 24.5)">
<stop stop-color="white"/>
<stop offset="1" stop-color="#CC00FF" stop-opacity="0"/>
</radialGradient>
<radialGradient id="paint14_diamond_17_2" cx="0" cy="0" r="1" gradientUnits="userSpaceOnUse" gradientTransform="translate(338.5 646.5) rotate(90) scale(24.5 24.5)">
<stop stop-color="white"/>
<stop offset="1" stop-color="#CC00FF" stop-opacity="0"/>
</radialGradient>
<radialGradient id="paint15_diamond_17_2" cx="0" cy="0" r="1" gradientUnits="userSpaceOnUse" gradientTransform="translate(338.5 694) rotate(90) scale(24 24.5)">
<stop stop-color="white"/>
<stop offset="1" stop-color="#CC00FF" stop-opacity="0"/>
</radialGradient>
<radialGradient id="paint16_diamond_17_2" cx="0" cy="0" r="1" gradientUnits="userSpaceOnUse" gradientTransform="translate(338.5 695.5) rotate(90) scale(24.5 24.5)">
<stop stop-color="white"/>
<stop offset="1" stop-color="#CC00FF" stop-opacity="0"/>
</radialGradient>
<radialGradient id="paint17_diamond_17_2" cx="0" cy="0" r="1" gradientUnits="userSpaceOnUse" gradientTransform="translate(288 516.222) rotate(90) scale(25)">
<stop stop-color="white"/>
<stop offset="1" stop-color="#CC00FF" stop-opacity="0"/>
</radialGradient>
<radialGradient id="paint18_diamond_17_2" cx="0" cy="0" r="1" gradientUnits="userSpaceOnUse" gradientTransform="translate(267 495.222) rotate(90) scale(25)">
<stop stop-color="white"/>
<stop offset="1" stop-color="#CC00FF" stop-opacity="0"/>
</radialGradient>
<radialGradient id="paint19_diamond_17_2" cx="0" cy="0" r="1" gradientUnits="userSpaceOnUse" gradientTransform="translate(308 496.222) rotate(90) scale(25)">
<stop stop-color="white"/>
<stop offset="1" stop-color="#CC00FF" stop-opacity="0"/>
</radialGradient>
</defs>
</svg>
